<?xml version="1.0" standalone="no"?>
<!DOCTYPE svg PUBLIC "-//W3C//DTD SVG 20010904//EN"
 "http://www.w3.org/TR/2001/REC-SVG-20010904/DTD/svg10.dtd">
<svg version="1.0" xmlns="http://www.w3.org/2000/svg"
 width="1024.000000pt" height="1024.000000pt" viewBox="0 0 1024.000000 1024.000000"
 preserveAspectRatio="xMidYMid meet">
<metadata>
Created by potrace 1.14, written by Peter Selinger 2001-2017
</metadata>
<g transform="translate(0.000000,1024.000000) scale(0.100000,-0.100000)"
fill="#000000" stroke="none">
<path d="M5043 9554 c-167 -36 -271 -136 -313 -297 -16 -63 -18 -117 -18 -437
-1 -201 -1 -382 -2 -403 l0 -37 -201 199 c-110 110 -221 214 -246 230 -51 34
-130 66 -183 75 -92 14 -249 -39 -324 -110 -99 -94 -153 -273 -116 -391 36
-118 45 -128 568 -654 l504 -506 -1 -638 c0 -350 -2 -639 -4 -642 -4 -3 -139
72 -345 192 -9 6 -71 41 -137 78 -66 37 -127 72 -135 77 -21 13 -287 166 -397
229 -51 29 -95 57 -99 62 -5 8 -91 317 -109 389 -4 18 -29 112 -80 300 -20 74
-52 194 -71 265 -19 72 -39 144 -44 160 -5 17 -11 41 -14 55 -3 14 -14 56 -25
95 -70 237 -220 357 -438 350 -157 -5 -326 -147 -359 -300 -14 -68 -10 -173 9
-250 3 -11 32 -125 65 -252 33 -128 58 -233 55 -233 -2 0 -35 18 -71 39 -135
79 -509 289 -557 313 -181 90 -360 58 -501 -91 -70 -73 -98 -150 -99 -271 0
-77 3 -92 33 -152 42 -85 120 -158 256 -237 245 -143 540 -321 534 -321 -4 0
-127 -32 -274 -70 -292 -77 -358 -104 -434 -181 -63 -63 -98 -135 -107 -217
-12 -114 -4 -164 38 -249 94 -186 285 -259 519 -198 180 46 645 172 1010 272
69 19 134 36 145 38 11 3 41 11 66 18 42 13 48 13 70 -4 13 -10 27 -19 32 -19
4 0 24 -11 45 -23 20 -13 57 -35 82 -49 25 -14 144 -82 265 -153 121 -70 245
-141 275 -157 30 -17 60 -34 65 -38 9 -7 41 -26 125 -72 19 -11 58 -33 85 -49
28 -16 65 -37 83 -46 17 -9 32 -19 32 -22 0 -3 -30 -23 -68 -43 -37 -21 -89
-51 -117 -67 -27 -17 -86 -50 -130 -75 -44 -26 -100 -58 -125 -72 -158 -92
-561 -325 -593 -343 -21 -12 -49 -28 -62 -37 -13 -9 -28 -13 -32 -11 -5 3
-146 42 -313 87 -168 45 -336 91 -375 101 -38 11 -78 22 -88 24 -10 2 -27 7
-37 10 -10 3 -27 8 -37 10 -22 5 -200 53 -352 95 -63 17 -142 32 -175 34 -175
10 -305 -57 -385 -199 -40 -71 -52 -114 -53 -192 0 -156 54 -263 172 -342 77
-51 107 -63 250 -101 69 -18 187 -49 262 -69 l138 -36 -277 -165 c-152 -91
-282 -166 -290 -168 -7 -2 -13 -7 -13 -10 0 -4 -13 -13 -28 -20 -58 -25 -150
-120 -184 -190 -29 -59 -33 -76 -33 -152 0 -121 30 -201 105 -279 68 -70 152
-117 229 -129 140 -21 193 -1 549 201 344 196 346 197 348 194 1 -1 -29 -121
-67 -267 -81 -311 -90 -390 -55 -495 39 -113 105 -185 224 -241 141 -67 333
-26 443 93 69 75 96 139 165 394 36 134 90 336 121 449 30 113 81 304 113 424
33 121 63 223 67 227 4 4 51 32 103 62 52 30 230 132 395 227 165 95 318 183
340 195 22 13 81 47 130 75 117 69 138 80 143 76 4 -5 5 -1276 0 -1281 -1 -2
-224 -226 -494 -497 -506 -508 -540 -547 -572 -655 -51 -174 41 -378 208 -462
150 -74 286 -61 435 42 16 11 119 109 228 216 108 108 198 197 200 198 1 1 2
-182 2 -405 0 -394 4 -462 25 -503 6 -10 8 -19 5 -19 -13 0 40 -85 78 -127
186 -202 537 -156 655 87 47 98 51 145 49 566 -1 217 1 393 5 392 4 -2 96 -91
205 -199 216 -213 279 -259 391 -285 216 -50 438 104 476 331 16 91 6 151 -40
245 -35 71 -64 102 -533 573 -273 274 -497 499 -499 501 -5 6 -4 1277 1 1282
2 3 128 -67 278 -154 151 -87 399 -230 552 -318 291 -166 290 -165 307 -244 9
-41 61 -233 90 -335 11 -39 22 -79 24 -90 2 -11 10 -40 17 -65 15 -54 11 -39
48 -175 85 -315 105 -388 127 -475 46 -178 126 -297 236 -353 70 -35 94 -40
198 -41 78 -1 91 2 154 34 177 89 259 254 226 452 -4 24 -31 133 -60 243 -28
110 -55 214 -59 230 -5 17 -11 41 -16 54 -9 28 -21 34 370 -189 279 -160 290
-165 378 -183 142 -30 276 15 384 131 51 55 67 87 89 173 35 135 -7 272 -110
367 -30 26 -132 95 -227 152 -96 56 -242 144 -326 194 l-152 91 202 52 c111
29 229 60 262 70 239 67 365 221 357 437 -6 143 -92 280 -217 340 -130 64
-225 57 -560 -38 -27 -8 -196 -54 -375 -102 -341 -91 -450 -120 -589 -159 -89
-25 -91 -25 -151 15 -17 11 -222 130 -290 168 -25 14 -57 33 -72 43 -14 11
-28 19 -31 19 -3 0 -97 53 -209 118 -288 168 -406 236 -428 247 -11 5 -20 12
-20 15 1 4 703 410 914 528 22 13 77 45 121 70 l80 47 175 -47 c96 -26 209
-56 250 -67 41 -11 118 -32 170 -46 52 -14 111 -30 130 -35 355 -102 603 -163
673 -165 143 -4 231 28 323 120 78 77 114 152 118 243 7 194 -84 342 -259 420
-40 17 -216 68 -305 87 -8 2 -73 18 -143 35 l-128 33 53 31 c29 18 173 103
319 189 296 175 367 230 419 328 29 54 33 71 34 143 2 148 -27 221 -126 316
-86 82 -213 126 -318 108 -96 -16 -139 -32 -228 -85 -41 -23 -75 -43 -76 -43
-2 0 -79 -43 -172 -96 -93 -53 -189 -108 -214 -122 -25 -14 -54 -31 -65 -38
-11 -8 -23 -14 -26 -14 -4 0 22 111 57 248 36 136 69 272 73 302 27 175 -29
315 -161 400 -82 53 -146 73 -237 72 -117 0 -213 -42 -285 -123 -34 -38 -100
-160 -110 -204 -4 -16 -22 -86 -41 -155 -19 -69 -60 -217 -90 -330 -31 -113
-62 -227 -70 -255 -8 -27 -42 -151 -75 -275 -33 -124 -64 -234 -69 -246 -7
-17 -96 -74 -246 -160 -85 -48 -843 -498 -853 -507 -7 -5 -15 -7 -18 -4 -3 3
-6 297 -6 653 l1 648 489 490 c269 270 500 507 513 526 107 153 107 317 1 475
-54 78 -144 137 -252 163 -93 22 -220 -9 -314 -77 -27 -19 -136 -122 -242
-229 -127 -127 -194 -187 -194 -175 0 10 -2 196 -3 413 -2 217 -7 409 -11 425
-21 90 -68 177 -122 227 -35 32 -145 84 -194 92 -19 3 -48 7 -65 10 -16 2 -58
-2 -92 -10z"/>
</g>
</svg>
